<svg width="94" height="40" viewBox="0 0 94 40" fill="none" xmlns="http://www.w3.org/2000/svg">
<path d="M21.2031 0.495999V5.92H7.23513V14.512H17.9391V19.84H7.23513V34H0.515125V0.495999H21.2031ZM46.5123 27.616H33.1683L30.9603 34H23.9043L35.9523 0.447997H43.7763L55.8243 34H48.7203L46.5123 27.616ZM44.6883 22.24L39.8403 8.224L34.9922 22.24H44.6883ZM85.2876 39.904L80.1996 33.808C78.7916 34.16 77.3516 34.336 75.8796 34.336C72.7436 34.336 69.8636 33.6 67.2396 32.128C64.6156 30.656 62.5356 28.624 60.9996 26.032C59.4636 23.408 58.6956 20.448 58.6956 17.152C58.6956 13.888 59.4636 10.96 60.9996 8.368C62.5356 5.744 64.6156 3.696 67.2396 2.224C69.8636 0.751999 72.7436 0.0159998 75.8796 0.0159998C79.0476 0.0159998 81.9276 0.751999 84.5196 2.224C87.1436 3.696 89.2076 5.744 90.7116 8.368C92.2476 10.96 93.0156 13.888 93.0156 17.152C93.0156 20.128 92.3756 22.848 91.0956 25.312C89.8476 27.744 88.1356 29.728 85.9596 31.264L93.6396 39.904H85.2876ZM65.6076 17.152C65.6076 19.392 66.0396 21.36 66.9036 23.056C67.7676 24.752 68.9676 26.064 70.5036 26.992C72.0716 27.888 73.8636 28.336 75.8796 28.336C77.8956 28.336 79.6716 27.888 81.2076 26.992C82.7436 26.064 83.9436 24.752 84.8076 23.056C85.6716 21.36 86.1036 19.392 86.1036 17.152C86.1036 14.912 85.6716 12.96 84.8076 11.296C83.9436 9.6 82.7436 8.304 81.2076 7.408C79.6716 6.512 77.8956 6.064 75.8796 6.064C73.8636 6.064 72.0716 6.512 70.5036 7.408C68.9676 8.304 67.7676 9.6 66.9036 11.296C66.0396 12.96 65.6076 14.912 65.6076 17.152Z" fill="white"/>
</svg>
